<svg width="256" height="256" viewBox="0 0 256 256" fill="none" xmlns="http://www.w3.org/2000/svg">
  <rect width="256" height="256" rx="48" fill="#0B0F1A"/>
  <path d="M68 84C68 72.9543 76.9543 64 88 64H168C179.046 64 188 72.9543 188 84V92H168V88C168 83.5817 164.418 80 160 80H96C91.5817 80 88 83.5817 88 88V168C88 172.418 91.5817 176 96 176H160C164.418 176 168 172.418 168 168V144H136V128H188V172C188 183.046 179.046 192 168 192H88C76.9543 192 68 183.046 68 172V84Z" fill="#87E8FF"/>
  <circle cx="152" cy="128" r="16" fill="#87E8FF"/>
</svg>
